<?xml version="1.0" standalone="no"?>
<svg viewBox="0 0 200 200" xmlns="http://www.w3.org/2000/svg">
  <path fill=" #C14953" d="M31.6,-45.6C40.1,-49.8,45.6,-39.7,41.6,-29.7C37.6,-19.7,24.1,-9.8,16.6,-4.3C9.2,1.3,7.9,2.5,14.4,16.8C20.9,31.1,35.2,58.4,34.1,63.6C33,68.7,16.5,51.7,6.4,40.6C-3.7,29.5,-7.3,24.3,-16.4,23.7C-25.4,23.1,-39.8,27.2,-47.3,24C-54.7,20.9,-55.3,10.4,-54.9,0.2C-54.6,-10,-53.3,-20,-51.4,-32.9C-49.5,-45.7,-47,-61.4,-38.3,-57.1C-29.7,-52.8,-14.8,-28.5,-1.6,-25.7C11.5,-22.8,23.1,-41.4,31.6,-45.6Z" transform="translate(100 100)" />
</svg>
